<svg width="14" height="16" viewBox="0 0 14 16" fill="none" xmlns="http://www.w3.org/2000/svg">
<path d="M11.2799 14.775C10.4633 15.5667 9.57159 15.4417 8.71326 15.0667C7.80492 14.6833 6.97159 14.6667 6.01325 15.0667C4.81325 15.5833 4.17992 15.4333 3.46326 14.775C-0.603411 10.5833 -0.00341129 4.2 4.61326 3.96667C5.73826 4.025 6.52159 4.58333 7.17992 4.63333C8.16326 4.43333 9.10492 3.85833 10.1549 3.93333C11.4133 4.03333 12.3633 4.53333 12.9883 5.43333C10.3883 6.99167 11.0049 10.4167 13.3883 11.375C12.9133 12.625 12.2966 13.8667 11.2716 14.7833L11.2799 14.775ZM7.09659 3.91667C6.97159 2.05833 8.47992 0.525 10.2133 0.375C10.4549 2.525 8.26325 4.125 7.09659 3.91667Z" fill="white"/>
</svg>
