<svg width="1440" height="744" viewBox="0 0 1440 744" fill="none" xmlns="http://www.w3.org/2000/svg">
<g opacity="0.3">
<path d="M1303.3 277.189C1303.3 279.118 1301.38 280.725 1298.89 280.725C1296.58 280.725 1294.66 279.118 1294.66 277.189C1294.66 275.099 1296.58 273.491 1298.89 273.491C1301.38 273.491 1303.3 275.099 1303.3 277.189Z" fill="#AFF0E5" stroke="#A588FF"/>
<path d="M1240.51 495.505C1240.51 497.434 1238.59 499.041 1236.29 499.041C1233.99 499.041 1231.87 497.434 1231.87 495.505C1231.87 493.576 1233.99 491.807 1236.29 491.807C1238.59 491.807 1240.51 493.576 1240.51 495.505Z" fill="#AFF0E5" stroke="#A588FF"/>
<path d="M1043.52 704.175C1043.52 706.104 1041.6 707.712 1039.11 707.712C1036.8 707.712 1034.88 706.104 1034.88 704.175C1034.88 702.246 1036.8 700.638 1039.11 700.638C1041.6 700.638 1043.52 702.246 1043.52 704.175Z" fill="#AFF0E5" stroke="#A588FF"/>
<path style="mix-blend-mode:multiply" opacity="0.8" d="M1051.01 704.175C1051.01 709.641 1045.83 714.142 1039.11 714.142C1032.58 714.142 1027.2 709.641 1027.2 704.175C1027.2 698.709 1032.58 694.208 1039.11 694.208C1045.83 694.208 1051.01 698.709 1051.01 704.175Z" fill="#0066FF"/>
<path d="M1043.52 674.435C1043.52 676.364 1041.6 677.971 1039.11 677.971C1036.8 677.971 1034.88 676.364 1034.88 674.435C1034.88 672.505 1036.8 670.737 1039.11 670.737C1041.6 670.737 1043.52 672.505 1043.52 674.435Z" fill="#AFF0E5" stroke="#A588FF"/>
<path style="mix-blend-mode:multiply" opacity="0.8" d="M1051.01 674.434C1051.01 679.9 1045.83 684.401 1039.11 684.401C1032.58 684.401 1027.2 679.9 1027.2 674.434C1027.2 668.968 1032.58 664.467 1039.11 664.467C1045.83 664.467 1051.01 668.968 1051.01 674.434Z" fill="#0066FF"/>
<path d="M1043.52 733.916C1043.52 735.846 1041.6 737.453 1039.11 737.453C1036.8 737.453 1034.88 735.846 1034.88 733.916C1034.88 731.987 1036.8 730.38 1039.11 730.38C1041.6 730.38 1043.52 731.987 1043.52 733.916Z" fill="#AFF0E5" stroke="#A588FF"/>
<path style="mix-blend-mode:multiply" opacity="0.8" d="M1051.01 733.917C1051.01 739.383 1045.83 743.884 1039.11 743.884C1032.58 743.884 1027.2 739.383 1027.2 733.917C1027.2 728.451 1032.58 723.949 1039.11 723.949C1045.83 723.949 1051.01 728.451 1051.01 733.917Z" fill="#0066FF"/>
<path d="M136.899 531.516C136.899 529.587 138.819 527.979 141.315 527.979C143.619 527.979 145.539 529.587 145.539 531.516C145.539 533.606 143.619 535.213 141.315 535.213C138.819 535.213 136.899 533.606 136.899 531.516Z" fill="#AFF0E5" stroke="#A588FF"/>
<path d="M365.765 623.794C365.765 621.864 367.685 620.257 370.181 620.257C372.485 620.257 374.405 621.864 374.405 623.794C374.405 625.883 372.485 627.491 369.989 627.491C367.685 627.491 365.765 625.883 365.765 623.794Z" fill="#AFF0E5" stroke="#A588FF"/>
<path style="mix-blend-mode:multiply" opacity="0.8" d="M358.274 623.794C358.274 618.328 363.458 613.826 369.986 613.826C376.706 613.826 381.89 618.328 381.89 623.794C381.89 629.259 376.706 633.761 369.986 633.761C363.458 633.761 358.274 629.259 358.274 623.794Z" fill="#0066FF"/>
<path d="M199.682 313.199C199.682 311.27 201.602 309.663 203.906 309.663C206.21 309.663 208.13 311.27 208.13 313.199C208.13 315.129 206.21 316.897 203.906 316.897C201.602 316.897 199.682 315.129 199.682 313.199Z" fill="#AFF0E5" stroke="#A588FF"/>
<path style="mix-blend-mode:multiply" opacity="0.8" d="M192.002 313.199C192.002 307.733 197.378 303.232 203.906 303.232C210.434 303.232 215.81 307.733 215.81 313.199C215.81 318.665 210.434 323.167 203.906 323.167C197.378 323.167 192.002 318.665 192.002 313.199Z" fill="#0066FF"/>
<path d="M396.672 104.528C396.672 102.599 398.592 100.991 401.088 100.991C403.392 100.991 405.312 102.599 405.312 104.528C405.312 106.457 403.392 108.065 401.088 108.065C398.592 108.065 396.672 106.457 396.672 104.528Z" fill="#AFF0E5" stroke="#A588FF"/>
<path d="M396.672 134.269C396.672 132.34 398.592 130.733 401.088 130.733C403.392 130.733 405.312 132.34 405.312 134.269C405.312 136.199 403.392 137.967 401.088 137.967C398.592 137.967 396.672 136.199 396.672 134.269Z" fill="#AFF0E5" stroke="#A588FF"/>
<path d="M396.672 74.787C396.672 72.8579 398.592 71.2502 401.088 71.2502C403.392 71.2502 405.312 72.8579 405.312 74.787C405.312 76.7162 403.392 78.3238 401.088 78.3238C398.592 78.3238 396.672 76.7162 396.672 74.787Z" fill="#AFF0E5" stroke="#A588FF"/>
<g style="mix-blend-mode:soft-light">
<path d="M1339.01 115.461C1339.01 117.551 1337.09 119.158 1334.79 119.158C1332.29 119.158 1330.37 117.551 1330.37 115.461C1330.37 113.531 1332.29 111.924 1334.79 111.924C1337.09 111.924 1339.01 113.531 1339.01 115.461Z" fill="white"/>
<path d="M1301.95 361.91C1301.95 363.839 1300.03 365.447 1297.73 365.447C1295.42 365.447 1293.31 363.839 1293.31 361.91C1293.31 359.82 1295.42 358.213 1297.73 358.213C1300.03 358.213 1301.95 359.82 1301.95 361.91Z" fill="white"/>
<path d="M1049.66 184.107C1049.66 186.036 1047.74 187.643 1045.44 187.643C1042.94 187.643 1041.02 186.036 1041.02 184.107C1041.02 182.017 1042.94 180.409 1045.44 180.409C1047.74 180.409 1049.66 182.017 1049.66 184.107Z" fill="white"/>
<path d="M1061.95 184.107C1061.95 186.036 1060.03 187.643 1057.73 187.643C1055.42 187.643 1053.5 186.036 1053.5 184.107C1053.5 182.017 1055.42 180.409 1057.73 180.409C1060.03 180.409 1061.95 182.017 1061.95 184.107Z" fill="white"/>
<path d="M1376.45 260.629C1376.45 262.719 1374.53 264.327 1372.22 264.327C1369.92 264.327 1367.81 262.719 1367.81 260.629C1367.81 258.7 1369.92 257.093 1372.22 257.093C1374.53 257.093 1376.45 258.7 1376.45 260.629Z" fill="white"/>
<path d="M1240.51 312.396C1240.51 314.325 1238.59 316.093 1236.29 316.093C1233.99 316.093 1231.87 314.325 1231.87 312.396C1231.87 310.467 1233.99 308.859 1236.29 308.859C1238.59 308.859 1240.51 310.467 1240.51 312.396Z" fill="white"/>
<path d="M724.416 131.215C724.416 133.144 722.496 134.752 720 134.752C717.696 134.752 715.776 133.144 715.776 131.215C715.776 129.125 717.696 127.517 720 127.517C722.496 127.517 724.416 129.125 724.416 131.215Z" fill="white"/>
<path d="M1339.01 691.636C1339.01 689.546 1337.09 687.938 1334.79 687.938C1332.29 687.938 1330.37 689.546 1330.37 691.636C1330.37 693.565 1332.29 695.172 1334.79 695.172C1337.09 695.172 1339.01 693.565 1339.01 691.636Z" fill="white"/>
<path d="M1301.95 445.186C1301.95 443.257 1300.03 441.649 1297.73 441.649C1295.42 441.649 1293.31 443.257 1293.31 445.186C1293.31 447.276 1295.42 448.884 1297.73 448.884C1300.03 448.884 1301.95 447.276 1301.95 445.186Z" fill="white"/>
<path d="M1303.3 530.712C1303.3 528.783 1301.38 527.175 1298.88 527.175C1296.58 527.175 1294.66 528.783 1294.66 530.712C1294.66 532.802 1296.58 534.409 1298.88 534.409C1301.38 534.409 1303.3 532.802 1303.3 530.712Z" fill="white"/>
<path d="M1376.45 546.467C1376.45 544.377 1374.53 542.769 1372.22 542.769C1369.92 542.769 1367.81 544.377 1367.81 546.467C1367.81 548.396 1369.92 550.004 1372.22 550.004C1374.53 550.004 1376.45 548.396 1376.45 546.467Z" fill="white"/>
<path d="M978.818 149.06C978.818 150.989 976.898 152.597 974.402 152.597C972.098 152.597 970.178 150.989 970.178 149.06C970.178 146.97 972.098 145.362 974.402 145.362C976.898 145.362 978.818 146.97 978.818 149.06Z" fill="white"/>
<path d="M951.362 131.054C951.554 133.144 949.634 134.912 947.33 135.073C945.026 135.234 942.914 133.787 942.722 131.697C942.53 129.768 944.258 128 946.562 127.839C949.058 127.678 950.978 129.125 951.362 131.054Z" fill="white"/>
<path d="M921.987 115.3C922.371 117.229 920.835 119.158 918.531 119.479C916.227 119.801 913.923 118.515 913.539 116.586C913.155 114.496 914.691 112.727 916.995 112.406C919.299 111.924 921.603 113.37 921.987 115.3Z" fill="white"/>
<path d="M891.262 101.635C891.838 103.564 890.494 105.493 888.19 105.975C885.886 106.618 883.582 105.493 883.006 103.564C882.238 101.635 883.774 99.5449 885.886 99.0626C888.19 98.5803 890.686 99.7056 891.262 101.635Z" fill="white"/>
<path d="M859.199 90.2207C859.967 92.1499 858.815 94.2398 856.511 94.8829C854.399 95.5259 851.903 94.5613 851.135 92.7929C850.175 90.8638 851.327 88.7738 853.631 88.1308C855.935 87.4877 858.431 88.4523 859.199 90.2207Z" fill="white"/>
<path d="M724.416 675.881C724.416 673.952 722.496 672.345 720 672.345C717.696 672.345 715.776 673.952 715.776 675.881C715.776 677.971 717.696 679.579 720 679.579C722.496 679.579 724.416 677.971 724.416 675.881Z" fill="white"/>
<path d="M101.184 691.636C101.184 689.546 103.104 687.938 105.408 687.938C107.904 687.938 109.824 689.546 109.824 691.636C109.824 693.565 107.904 695.172 105.408 695.172C103.104 695.172 101.184 693.565 101.184 691.636Z" fill="white"/>
<path d="M138.241 445.186C138.241 443.257 140.161 441.649 142.465 441.649C144.769 441.649 146.689 443.257 146.689 445.186C146.689 447.276 144.769 448.884 142.465 448.884C140.161 448.884 138.241 447.276 138.241 445.186Z" fill="white"/>
<path d="M390.529 622.99C390.529 621.061 392.449 619.453 394.753 619.453C397.249 619.453 399.169 621.061 399.169 622.99C399.169 625.08 397.249 626.687 394.753 626.687C392.449 626.687 390.529 625.08 390.529 622.99Z" fill="white"/>
<path d="M378.24 622.99C378.24 621.061 380.16 619.453 382.464 619.453C384.768 619.453 386.688 621.061 386.688 622.99C386.688 625.08 384.768 626.687 382.464 626.687C380.16 626.687 378.24 625.08 378.24 622.99Z" fill="white"/>
<path d="M63.7434 546.467C63.7434 544.377 65.6634 542.769 67.9674 542.769C70.2714 542.769 72.1915 544.377 72.1915 546.467C72.1915 548.396 70.2714 550.004 67.9674 550.004C65.6634 550.004 63.7434 548.396 63.7434 546.467Z" fill="white"/>
<path d="M199.681 494.701C199.681 492.772 201.601 491.003 203.905 491.003C206.209 491.003 208.129 492.772 208.129 494.701C208.129 496.63 206.209 498.238 203.905 498.238C201.601 498.238 199.681 496.63 199.681 494.701Z" fill="white"/>
<path d="M101.184 115.461C101.184 117.551 103.104 119.158 105.408 119.158C107.904 119.158 109.824 117.551 109.824 115.461C109.824 113.531 107.904 111.924 105.408 111.924C103.104 111.924 101.184 113.531 101.184 115.461Z" fill="white"/>
<path d="M138.241 361.91C138.241 363.839 140.161 365.447 142.465 365.447C144.769 365.447 146.689 363.839 146.689 361.91C146.689 359.82 144.769 358.213 142.465 358.213C140.161 358.213 138.241 359.82 138.241 361.91Z" fill="white"/>
<path d="M136.898 276.385C136.898 278.314 138.818 279.921 141.314 279.921C143.618 279.921 145.538 278.314 145.538 276.385C145.538 274.295 143.618 272.687 141.314 272.687C138.818 272.687 136.898 274.295 136.898 276.385Z" fill="white"/>
<path d="M63.7434 260.629C63.7434 262.719 65.6634 264.327 67.9674 264.327C70.2714 264.327 72.1915 262.719 72.1915 260.629C72.1915 258.7 70.2714 257.093 67.9674 257.093C65.6634 257.093 63.7434 258.7 63.7434 260.629Z" fill="white"/>
<path d="M461.377 658.037C461.377 656.107 463.297 654.5 465.793 654.5C468.097 654.5 470.017 656.107 470.017 658.037C470.017 660.126 468.097 661.734 465.793 661.734C463.297 661.734 461.377 660.126 461.377 658.037Z" fill="white"/>
<path d="M488.832 676.042C488.64 673.952 490.368 672.183 492.864 672.022C495.168 671.862 497.28 673.309 497.472 675.398C497.664 677.328 495.936 679.096 493.632 679.257C491.136 679.418 489.024 677.971 488.832 676.042Z" fill="white"/>
<path d="M518.21 691.797C517.826 689.868 519.362 687.938 521.666 687.617C523.97 687.295 526.274 688.581 526.658 690.511C527.042 692.601 525.506 694.369 523.202 694.69C520.706 695.173 518.594 693.726 518.21 691.797Z" fill="white"/>
<path d="M548.926 705.461C548.35 703.532 549.694 701.603 551.998 701.121C554.302 700.478 556.606 701.603 557.182 703.532C557.95 705.461 556.414 707.551 554.11 708.034C551.806 708.516 549.502 707.39 548.926 705.461Z" fill="white"/>
<path d="M580.994 716.875C580.226 714.946 581.378 712.856 583.49 712.213C585.794 711.57 588.29 712.535 589.058 714.303C589.826 716.232 588.674 718.322 586.562 718.965C584.258 719.608 581.762 718.644 580.994 716.875Z" fill="white"/>
<path d="M1045.44 403.548C1045.44 554.023 899.711 675.881 719.999 675.881C540.479 675.881 394.75 554.023 394.75 403.548C394.75 253.074 540.479 131.215 719.999 131.215C899.711 131.215 1045.44 253.074 1045.44 403.548Z" stroke="#A588FF"/>
<path d="M1045.44 403.548H1440" stroke="#A588FF"/>
<path d="M1040.64 361.911H1297.73" stroke="#A588FF"/>
<path d="M1107.26 361.91L1209.41 276.384H1298.88" stroke="#A588FF"/>
<path d="M1001.09 265.934L1180.8 115.46H1317.5" stroke="#A588FF"/>
<path d="M1326.14 115.46C1326.14 119.479 1322.3 122.695 1317.5 122.695C1312.7 122.695 1308.86 119.479 1308.86 115.46C1308.86 111.441 1312.7 108.226 1317.5 108.226C1322.3 108.226 1326.14 111.441 1326.14 115.46Z" stroke="#A588FF"/>
<path d="M1137.6 361.91L1196.54 312.395H1236.29" stroke="#A588FF"/>
<path d="M1306.37 115.46C1306.37 119.479 1302.53 122.695 1297.73 122.695C1292.93 122.695 1289.09 119.479 1289.09 115.46C1289.09 111.441 1292.93 108.226 1297.73 108.226C1302.53 108.226 1306.37 111.441 1306.37 115.46Z" stroke="#A588FF"/>
<path d="M1286.4 115.46C1286.4 119.479 1282.56 122.695 1277.95 122.695C1273.15 122.695 1269.31 119.479 1269.31 115.46C1269.31 111.441 1273.15 108.226 1277.95 108.226C1282.56 108.226 1286.4 111.441 1286.4 115.46Z" stroke="#A588FF"/>
<path d="M1045.44 407.728H1438.27" stroke="#A588FF"/>
<path d="M1079.81 361.911L1199.42 260.63H1363.58" stroke="#A588FF"/>
<path d="M1380.86 260.63C1380.86 264.649 1377.02 267.864 1372.22 267.864C1367.42 267.864 1363.58 264.649 1363.58 260.63C1363.58 256.772 1367.42 253.556 1372.22 253.556C1377.02 253.556 1380.86 256.772 1380.86 260.63Z" stroke="#A588FF"/>
<path d="M728.641 131.215C728.641 135.235 724.801 138.45 720.001 138.45C715.393 138.45 711.552 135.235 711.552 131.215C711.552 127.196 715.393 123.981 720.001 123.981C724.801 123.981 728.641 127.196 728.641 131.215Z" stroke="#A588FF"/>
<path d="M1011.07 184.106C1011.07 188.125 1007.23 191.341 1002.43 191.341C997.633 191.341 993.793 188.125 993.793 184.106C993.793 180.087 997.633 176.872 1002.43 176.872C1007.23 176.872 1011.07 180.087 1011.07 184.106Z" stroke="#A588FF"/>
<path d="M979.01 184.106H1025.86" stroke="#A588FF"/>
<path d="M1002.43 203.719V164.493" stroke="#A588FF"/>
<path d="M1347.65 361.911C1347.65 365.769 1343.81 369.145 1339.01 369.145C1334.21 369.145 1330.37 365.769 1330.37 361.911C1330.37 357.892 1334.21 354.676 1339.01 354.676C1343.81 354.676 1347.65 357.892 1347.65 361.911Z" stroke="#A588FF"/>
<path d="M1315.58 361.911H1362.43" stroke="#A588FF"/>
<path d="M1339.01 381.363V342.297" stroke="#A588FF"/>
<path d="M1118.4 167.708H1440" stroke="#A588FF"/>
<path d="M1108.8 175.746H1440" stroke="#A588FF"/>
<path d="M1099.2 183.784H1440" stroke="#A588FF"/>
<path d="M1040.64 445.186H1297.73" stroke="#A588FF"/>
<path d="M1107.26 445.186L1209.41 530.712H1298.88" stroke="#A588FF"/>
<path d="M1001.09 541.162L1180.8 691.636H1317.5" stroke="#A588FF"/>
<path d="M1326.14 691.636C1326.14 687.617 1322.3 684.402 1317.5 684.402C1312.7 684.402 1308.86 687.617 1308.86 691.636C1308.86 695.655 1312.7 698.871 1317.5 698.871C1322.3 698.871 1326.14 695.655 1326.14 691.636Z" stroke="#A588FF"/>
<path d="M1137.6 445.186L1196.54 494.701H1236.29" stroke="#A588FF"/>
<path d="M1306.37 691.636C1306.37 687.617 1302.53 684.402 1297.73 684.402C1292.93 684.402 1289.09 687.617 1289.09 691.636C1289.09 695.655 1292.93 698.871 1297.73 698.871C1302.53 698.871 1306.37 695.655 1306.37 691.636Z" stroke="#A588FF"/>
<path d="M1286.4 691.636C1286.4 687.617 1282.56 684.402 1277.95 684.402C1273.15 684.402 1269.31 687.617 1269.31 691.636C1269.31 695.655 1273.15 698.871 1277.95 698.871C1282.56 698.871 1286.4 695.655 1286.4 691.636Z" stroke="#A588FF"/>
<path d="M1079.81 445.186L1199.42 546.467H1363.58" stroke="#A588FF"/>
<path d="M1380.86 546.467C1380.86 542.447 1377.02 539.232 1372.22 539.232C1367.42 539.232 1363.58 542.447 1363.58 546.467C1363.58 550.325 1367.42 553.54 1372.22 553.54C1377.02 553.54 1380.86 550.325 1380.86 546.467Z" stroke="#A588FF"/>
<path d="M1088.45 703.372C1088.45 699.352 1084.61 696.137 1079.81 696.137C1075.01 696.137 1071.17 699.352 1071.17 703.372C1071.17 707.391 1075.01 710.606 1079.81 710.606C1084.61 710.606 1088.45 707.391 1088.45 703.372Z" stroke="#A588FF"/>
<path d="M1056.38 703.372H1103.23" stroke="#A588FF"/>
<path d="M1079.81 683.758V722.985" stroke="#A588FF"/>
<path d="M1118.4 639.388H1440" stroke="#A588FF"/>
<path d="M1108.8 631.35H1440" stroke="#A588FF"/>
<path d="M1099.2 623.312H1440" stroke="#A588FF"/>
<path d="M923.901 191.341L974.397 149.06" stroke="#A588FF"/>
<path d="M901.057 177.194L946.945 131.376" stroke="#A588FF"/>
<path d="M876.862 164.815L917.758 115.943" stroke="#A588FF"/>
<path d="M851.33 154.365L887.042 102.599" stroke="#A588FF"/>
<path d="M825.023 145.684L855.167 91.5066" stroke="#A588FF"/>
<path d="M720 131.215V71.4113L749.376 46.8145V1.64001" stroke="#A588FF"/>
<path d="M728.641 675.881C728.641 671.862 724.801 668.647 720.001 668.647C715.393 668.647 711.552 671.862 711.552 675.881C711.552 679.9 715.393 683.115 720.001 683.115C724.801 683.115 728.641 679.9 728.641 675.881Z" stroke="#A588FF"/>
<path d="M948.29 597.59L1039.11 673.631V733.113" stroke="#A588FF" stroke-linecap="square"/>
<path d="M720 72.2148C816.96 72.2148 905.664 101.474 974.4 149.863" stroke="#A588FF"/>
<path d="M957.312 668.647C891.264 710.284 809.088 734.881 720 734.881" stroke="#A588FF"/>
<path d="M1099.2 498.72C1091.71 519.459 1081.92 539.394 1070.21 558.042" stroke="#A588FF"/>
<path d="M394.752 403.548H0" stroke="#A588FF"/>
<path d="M399.551 445.186H142.463" stroke="#A588FF"/>
<path d="M332.929 445.186L230.785 530.712H141.313" stroke="#A588FF"/>
<path d="M439.105 541.162L259.393 691.636H122.689" stroke="#A588FF"/>
<path d="M114.05 691.636C114.05 687.617 117.89 684.402 122.69 684.402C127.49 684.402 131.33 687.617 131.33 691.636C131.33 695.655 127.49 698.871 122.69 698.871C117.89 698.871 114.05 695.655 114.05 691.636Z" stroke="#A588FF"/>
<path d="M302.589 445.186L243.453 494.701H203.901" stroke="#A588FF"/>
<path d="M133.822 691.636C133.822 687.617 137.662 684.402 142.462 684.402C147.262 684.402 151.102 687.617 151.102 691.636C151.102 695.655 147.262 698.871 142.462 698.871C137.662 698.871 133.822 695.655 133.822 691.636Z" stroke="#A588FF"/>
<path d="M153.6 691.636C153.6 687.617 157.632 684.402 162.24 684.402C167.04 684.402 170.88 687.617 170.88 691.636C170.88 695.655 167.04 698.871 162.24 698.871C157.632 698.871 153.6 695.655 153.6 691.636Z" stroke="#A588FF"/>
<path d="M394.751 399.368H1.9187" stroke="#A588FF"/>
<path d="M360.384 445.186L240.768 546.467H76.6079" stroke="#A588FF"/>
<path d="M59.3303 546.467C59.3303 542.447 63.1703 539.232 67.9703 539.232C72.7703 539.232 76.6103 542.447 76.6103 546.467C76.6103 550.325 72.7703 553.54 67.9703 553.54C63.1703 553.54 59.3303 550.325 59.3303 546.467Z" stroke="#A588FF"/>
<path d="M429.119 622.99C429.119 618.971 432.959 615.756 437.759 615.756C442.559 615.756 446.399 618.971 446.399 622.99C446.399 627.009 442.559 630.224 437.759 630.224C432.959 630.224 429.119 627.009 429.119 622.99Z" stroke="#A588FF"/>
<path d="M461.185 622.99H414.337" stroke="#A588FF"/>
<path d="M437.76 603.376V642.603" stroke="#A588FF"/>
<path d="M92.5427 445.186C92.5427 441.327 96.3827 437.951 101.183 437.951C105.983 437.951 109.823 441.327 109.823 445.186C109.823 449.205 105.983 452.42 101.183 452.42C96.3827 452.42 92.5427 449.205 92.5427 445.186Z" stroke="#A588FF"/>
<path d="M124.607 445.186H77.7595" stroke="#A588FF"/>
<path d="M101.184 425.733V464.799" stroke="#A588FF"/>
<path d="M321.792 639.388H0" stroke="#A588FF"/>
<path d="M331.392 631.35H0" stroke="#A588FF"/>
<path d="M340.992 623.312H0" stroke="#A588FF"/>
<path d="M399.551 361.911H142.463" stroke="#A588FF"/>
<path d="M332.929 361.91L230.785 276.384H141.313" stroke="#A588FF"/>
<path d="M439.105 265.934L259.393 115.46H122.689" stroke="#A588FF"/>
<path d="M114.05 115.46C114.05 119.479 117.89 122.695 122.69 122.695C127.49 122.695 131.33 119.479 131.33 115.46C131.33 111.441 127.49 108.226 122.69 108.226C117.89 108.226 114.05 111.441 114.05 115.46Z" stroke="#A588FF"/>
<path d="M302.589 361.91L243.453 312.395H203.901" stroke="#A588FF"/>
<path d="M133.822 115.46C133.822 119.479 137.662 122.695 142.462 122.695C147.262 122.695 151.102 119.479 151.102 115.46C151.102 111.441 147.262 108.226 142.462 108.226C137.662 108.226 133.822 111.441 133.822 115.46Z" stroke="#A588FF"/>
<path d="M153.6 115.46C153.6 119.479 157.632 122.695 162.24 122.695C167.04 122.695 170.88 119.479 170.88 115.46C170.88 111.441 167.04 108.226 162.24 108.226C157.632 108.226 153.6 111.441 153.6 115.46Z" stroke="#A588FF"/>
<path d="M360.384 361.911L240.768 260.63H76.6079" stroke="#A588FF"/>
<path d="M59.3303 260.63C59.3303 264.649 63.1703 267.864 67.9703 267.864C72.7703 267.864 76.6103 264.649 76.6103 260.63C76.6103 256.772 72.7703 253.556 67.9703 253.556C63.1703 253.556 59.3303 256.772 59.3303 260.63Z" stroke="#A588FF"/>
<path d="M321.792 167.708H0" stroke="#A588FF"/>
<path d="M331.392 175.746H0" stroke="#A588FF"/>
<path d="M340.992 183.784H0" stroke="#A588FF"/>
<path d="M516.288 615.756L465.792 658.036" stroke="#A588FF"/>
<path d="M539.137 629.902L493.249 675.72" stroke="#A588FF"/>
<path d="M563.328 642.281L522.432 691.154" stroke="#A588FF"/>
<path d="M588.865 652.731L553.153 704.497" stroke="#A588FF"/>
<path d="M615.166 661.412L585.022 715.59" stroke="#A588FF"/>
<path d="M491.904 209.507L401.088 133.466V73.9835L314.688 1.64001" stroke="#A588FF" stroke-linecap="square"/>
<path d="M720 734.881C623.232 734.881 534.528 705.622 465.792 657.232" stroke="#A588FF"/>
<path d="M482.882 138.449C548.93 96.8116 631.106 72.2148 720.002 72.2148" stroke="#A588FF"/>
<path d="M340.991 308.376C348.479 287.638 358.271 267.703 369.983 249.055" stroke="#A588FF"/>
</g>
<path d="M1339.01 116.264C1339.01 118.354 1337.09 119.962 1334.79 119.962C1332.29 119.962 1330.37 118.354 1330.37 116.264C1330.37 114.335 1332.29 112.728 1334.79 112.728C1337.09 112.728 1339.01 114.335 1339.01 116.264Z" fill="white"/>
<path d="M1301.95 362.714C1301.95 364.643 1300.03 366.251 1297.73 366.251C1295.43 366.251 1293.31 364.643 1293.31 362.714C1293.31 360.624 1295.43 359.017 1297.73 359.017C1300.03 359.017 1301.95 360.624 1301.95 362.714Z" fill="white"/>
<path d="M1049.67 184.91C1049.67 186.84 1047.75 188.447 1045.44 188.447C1042.95 188.447 1041.03 186.84 1041.03 184.91C1041.03 182.821 1042.95 181.213 1045.44 181.213C1047.75 181.213 1049.67 182.821 1049.67 184.91Z" fill="white"/>
<path d="M1061.95 184.91C1061.95 186.84 1060.03 188.447 1057.73 188.447C1055.43 188.447 1053.5 186.84 1053.5 184.91C1053.5 182.821 1055.43 181.213 1057.73 181.213C1060.03 181.213 1061.95 182.821 1061.95 184.91Z" fill="white"/>
<path d="M1376.45 261.433C1376.45 263.523 1374.53 265.131 1372.23 265.131C1369.92 265.131 1367.81 263.523 1367.81 261.433C1367.81 259.504 1369.92 257.896 1372.23 257.896C1374.53 257.896 1376.45 259.504 1376.45 261.433Z" fill="white"/>
<path d="M1240.51 313.199C1240.51 315.129 1238.59 316.897 1236.29 316.897C1233.99 316.897 1231.87 315.129 1231.87 313.199C1231.87 311.27 1233.99 309.663 1236.29 309.663C1238.59 309.663 1240.51 311.27 1240.51 313.199Z" fill="white"/>
<path d="M724.419 132.019C724.419 133.948 722.499 135.556 720.003 135.556C717.699 135.556 715.779 133.948 715.779 132.019C715.779 129.929 717.699 128.321 720.003 128.321C722.499 128.321 724.419 129.929 724.419 132.019Z" fill="white"/>
<path d="M1339.01 692.44C1339.01 690.35 1337.09 688.742 1334.79 688.742C1332.29 688.742 1330.37 690.35 1330.37 692.44C1330.37 694.369 1332.29 695.977 1334.79 695.977C1337.09 695.977 1339.01 694.369 1339.01 692.44Z" fill="white"/>
<path d="M1301.95 445.99C1301.95 444.061 1300.03 442.453 1297.73 442.453C1295.43 442.453 1293.31 444.061 1293.31 445.99C1293.31 448.08 1295.43 449.688 1297.73 449.688C1300.03 449.688 1301.95 448.08 1301.95 445.99Z" fill="white"/>
<path d="M1303.3 531.516C1303.3 529.587 1301.38 527.979 1298.89 527.979C1296.58 527.979 1294.66 529.587 1294.66 531.516C1294.66 533.606 1296.58 535.213 1298.89 535.213C1301.38 535.213 1303.3 533.606 1303.3 531.516Z" fill="white"/>
<path d="M1376.45 547.271C1376.45 545.181 1374.53 543.573 1372.23 543.573C1369.92 543.573 1367.81 545.181 1367.81 547.271C1367.81 549.2 1369.92 550.807 1372.23 550.807C1374.53 550.807 1376.45 549.2 1376.45 547.271Z" fill="white"/>
<path d="M978.82 149.864C978.82 151.793 976.901 153.4 974.405 153.4C972.101 153.4 970.18 151.793 970.18 149.864C970.18 147.774 972.101 146.166 974.405 146.166C976.901 146.166 978.82 147.774 978.82 149.864Z" fill="white"/>
<path d="M951.365 131.858C951.557 133.948 949.637 135.716 947.333 135.877C945.029 136.038 942.917 134.591 942.725 132.501C942.533 130.572 944.261 128.803 946.565 128.643C949.061 128.482 950.981 129.929 951.365 131.858Z" fill="white"/>
<path d="M921.988 116.103C922.372 118.033 920.836 119.962 918.532 120.283C916.228 120.605 913.924 119.319 913.54 117.39C913.156 115.3 914.692 113.531 916.996 113.21C919.3 112.727 921.604 114.174 921.988 116.103Z" fill="white"/>
<path d="M891.265 102.439C891.841 104.368 890.497 106.297 888.193 106.779C885.889 107.422 883.585 106.297 883.009 104.368C882.241 102.439 883.777 100.349 885.889 99.8664C888.193 99.3841 890.689 100.509 891.265 102.439Z" fill="white"/>
<path d="M859.202 91.0245C859.97 92.9537 858.818 95.0436 856.514 95.6867C854.402 96.3297 851.906 95.3652 851.138 93.5968C850.178 91.6676 851.33 89.5777 853.634 88.9346C855.938 88.2916 858.434 89.2562 859.202 91.0245Z" fill="white"/>
<path d="M724.419 676.685C724.419 674.756 722.499 673.148 720.003 673.148C717.699 673.148 715.779 674.756 715.779 676.685C715.779 678.775 717.699 680.383 720.003 680.383C722.499 680.383 724.419 678.775 724.419 676.685Z" fill="white"/>
<path d="M101.185 692.44C101.185 690.35 103.105 688.742 105.409 688.742C107.905 688.742 109.825 690.35 109.825 692.44C109.825 694.369 107.905 695.977 105.409 695.977C103.105 695.977 101.185 694.369 101.185 692.44Z" fill="white"/>
<path d="M138.244 445.99C138.244 444.061 140.164 442.453 142.468 442.453C144.772 442.453 146.692 444.061 146.692 445.99C146.692 448.08 144.772 449.688 142.468 449.688C140.164 449.688 138.244 448.08 138.244 445.99Z" fill="white"/>
<path d="M390.532 623.794C390.532 621.864 392.452 620.257 394.756 620.257C397.252 620.257 399.172 621.864 399.172 623.794C399.172 625.883 397.252 627.491 394.756 627.491C392.452 627.491 390.532 625.883 390.532 623.794Z" fill="white"/>
<path d="M378.241 623.794C378.241 621.864 380.161 620.257 382.465 620.257C384.769 620.257 386.689 621.864 386.689 623.794C386.689 625.883 384.769 627.491 382.465 627.491C380.161 627.491 378.241 625.883 378.241 623.794Z" fill="white"/>
<path d="M63.7441 547.271C63.7441 545.181 65.6642 543.573 67.9682 543.573C70.2722 543.573 72.1922 545.181 72.1922 547.271C72.1922 549.2 70.2722 550.807 67.9682 550.807C65.6642 550.807 63.7441 549.2 63.7441 547.271Z" fill="white"/>
<path d="M199.682 495.505C199.682 493.576 201.602 491.807 203.906 491.807C206.21 491.807 208.13 493.576 208.13 495.505C208.13 497.434 206.21 499.041 203.906 499.041C201.602 499.041 199.682 497.434 199.682 495.505Z" fill="white"/>
<path d="M101.185 116.264C101.185 118.354 103.105 119.962 105.409 119.962C107.905 119.962 109.825 118.354 109.825 116.264C109.825 114.335 107.905 112.728 105.409 112.728C103.105 112.728 101.185 114.335 101.185 116.264Z" fill="white"/>
<path d="M138.244 362.714C138.244 364.643 140.164 366.251 142.468 366.251C144.772 366.251 146.692 364.643 146.692 362.714C146.692 360.624 144.772 359.017 142.468 359.017C140.164 359.017 138.244 360.624 138.244 362.714Z" fill="white"/>
<path d="M136.899 277.189C136.899 279.118 138.819 280.725 141.315 280.725C143.619 280.725 145.539 279.118 145.539 277.189C145.539 275.099 143.619 273.491 141.315 273.491C138.819 273.491 136.899 275.099 136.899 277.189Z" fill="white"/>
<path d="M63.7441 261.433C63.7441 263.523 65.6642 265.131 67.9682 265.131C70.2722 265.131 72.1922 263.523 72.1922 261.433C72.1922 259.504 70.2722 257.896 67.9682 257.896C65.6642 257.896 63.7441 259.504 63.7441 261.433Z" fill="white"/>
<path d="M461.378 658.84C461.378 656.911 463.298 655.304 465.794 655.304C468.098 655.304 470.018 656.911 470.018 658.84C470.018 660.93 468.098 662.538 465.794 662.538C463.298 662.538 461.378 660.93 461.378 658.84Z" fill="white"/>
<path d="M488.833 676.845C488.641 674.756 490.369 672.987 492.865 672.826C495.169 672.666 497.281 674.113 497.473 676.202C497.665 678.132 495.937 679.9 493.633 680.061C491.137 680.221 489.025 678.775 488.833 676.845Z" fill="white"/>
<path d="M518.211 692.601C517.827 690.671 519.363 688.742 521.667 688.421C523.971 688.099 526.275 689.385 526.659 691.315C527.043 693.404 525.507 695.173 523.203 695.494C520.707 695.977 518.595 694.53 518.211 692.601Z" fill="white"/>
<path d="M548.929 706.265C548.353 704.336 549.697 702.407 552.001 701.924C554.305 701.281 556.609 702.407 557.185 704.336C557.953 706.265 556.417 708.355 554.113 708.837C551.809 709.32 549.505 708.194 548.929 706.265Z" fill="white"/>
<path d="M580.995 717.679C580.227 715.75 581.379 713.66 583.491 713.017C585.795 712.374 588.291 713.339 589.059 715.107C589.827 717.036 588.675 719.126 586.563 719.769C584.259 720.412 581.763 719.448 580.995 717.679Z" fill="white"/>
<path d="M1045.44 404.352C1045.44 554.827 899.714 676.685 720.002 676.685C540.482 676.685 394.753 554.827 394.753 404.352C394.753 253.878 540.482 132.019 720.002 132.019C899.714 132.019 1045.44 253.878 1045.44 404.352Z" stroke="#A588FF"/>
<path d="M1045.44 404.352H1440" stroke="#A588FF"/>
<path d="M1040.64 362.714H1297.73" stroke="#A588FF"/>
<path d="M1107.26 362.714L1209.41 277.188H1298.88" stroke="#A588FF"/>
<path d="M1001.09 266.738L1180.8 116.264H1317.51" stroke="#A588FF"/>
<path d="M1326.14 116.264C1326.14 120.283 1322.3 123.498 1317.5 123.498C1312.7 123.498 1308.86 120.283 1308.86 116.264C1308.86 112.245 1312.7 109.03 1317.5 109.03C1322.3 109.03 1326.14 112.245 1326.14 116.264Z" stroke="#A588FF"/>
<path d="M1137.6 362.714L1196.55 313.199H1236.29" stroke="#A588FF"/>
<path d="M1306.37 116.264C1306.37 120.283 1302.53 123.498 1297.73 123.498C1292.93 123.498 1289.09 120.283 1289.09 116.264C1289.09 112.245 1292.93 109.03 1297.73 109.03C1302.53 109.03 1306.37 112.245 1306.37 116.264Z" stroke="#A588FF"/>
<path d="M1286.4 116.264C1286.4 120.283 1282.56 123.498 1277.95 123.498C1273.15 123.498 1269.31 120.283 1269.31 116.264C1269.31 112.245 1273.15 109.03 1277.95 109.03C1282.56 109.03 1286.4 112.245 1286.4 116.264Z" stroke="#A588FF"/>
<path d="M1045.44 408.532H1438.27" stroke="#A588FF"/>
<path d="M1079.81 362.714L1199.43 261.434H1363.59" stroke="#A588FF"/>
<path d="M1380.86 261.434C1380.86 265.453 1377.02 268.668 1372.22 268.668C1367.42 268.668 1363.58 265.453 1363.58 261.434C1363.58 257.575 1367.42 254.36 1372.22 254.36C1377.02 254.36 1380.86 257.575 1380.86 261.434Z" stroke="#A588FF"/>
<path d="M728.641 132.019C728.641 136.038 724.801 139.254 720.001 139.254C715.393 139.254 711.553 136.038 711.553 132.019C711.553 128 715.393 124.785 720.001 124.785C724.801 124.785 728.641 128 728.641 132.019Z" stroke="#A588FF"/>
<path d="M1011.07 184.91C1011.07 188.929 1007.23 192.144 1002.43 192.144C997.634 192.144 993.794 188.929 993.794 184.91C993.794 180.891 997.634 177.676 1002.43 177.676C1007.23 177.676 1011.07 180.891 1011.07 184.91Z" stroke="#A588FF"/>
<path d="M979.011 184.91H1025.86" stroke="#A588FF"/>
<path d="M1002.43 204.523V165.297" stroke="#A588FF"/>
<path d="M1347.65 362.714C1347.65 366.573 1343.81 369.949 1339.01 369.949C1334.21 369.949 1330.37 366.573 1330.37 362.714C1330.37 358.695 1334.21 355.48 1339.01 355.48C1343.81 355.48 1347.65 358.695 1347.65 362.714Z" stroke="#A588FF"/>
<path d="M1315.58 362.714H1362.43" stroke="#A588FF"/>
<path d="M1339.01 382.167V343.101" stroke="#A588FF"/>
<path d="M1118.4 168.512H1440" stroke="#A588FF"/>
<path d="M1108.8 176.55H1440" stroke="#A588FF"/>
<path d="M1099.2 184.588H1440" stroke="#A588FF"/>
<path d="M1040.64 445.99H1297.73" stroke="#A588FF"/>
<path d="M1107.26 445.99L1209.41 531.516H1298.88" stroke="#A588FF"/>
<path d="M1001.09 541.966L1180.8 692.44H1317.51" stroke="#A588FF"/>
<path d="M1326.14 692.44C1326.14 688.421 1322.3 685.206 1317.5 685.206C1312.7 685.206 1308.86 688.421 1308.86 692.44C1308.86 696.459 1312.7 699.675 1317.5 699.675C1322.3 699.675 1326.14 696.459 1326.14 692.44Z" stroke="#A588FF"/>
<path d="M1137.6 445.99L1196.55 495.505H1236.29" stroke="#A588FF"/>
<path d="M1306.37 692.44C1306.37 688.421 1302.53 685.206 1297.73 685.206C1292.93 685.206 1289.09 688.421 1289.09 692.44C1289.09 696.459 1292.93 699.675 1297.73 699.675C1302.53 699.675 1306.37 696.459 1306.37 692.44Z" stroke="#A588FF"/>
<path d="M1286.4 692.44C1286.4 688.421 1282.56 685.206 1277.95 685.206C1273.15 685.206 1269.31 688.421 1269.31 692.44C1269.31 696.459 1273.15 699.675 1277.95 699.675C1282.56 699.675 1286.4 696.459 1286.4 692.44Z" stroke="#A588FF"/>
<path d="M1079.81 445.99L1199.43 547.27H1363.59" stroke="#A588FF"/>
<path d="M1380.86 547.27C1380.86 543.251 1377.02 540.036 1372.22 540.036C1367.42 540.036 1363.58 543.251 1363.58 547.27C1363.58 551.129 1367.42 554.344 1372.22 554.344C1377.02 554.344 1380.86 551.129 1380.86 547.27Z" stroke="#A588FF"/>
<path d="M1088.45 704.175C1088.45 700.156 1084.61 696.941 1079.81 696.941C1075.01 696.941 1071.17 700.156 1071.17 704.175C1071.17 708.194 1075.01 711.41 1079.81 711.41C1084.61 711.41 1088.45 708.194 1088.45 704.175Z" stroke="#A588FF"/>
<path d="M1056.38 704.176H1103.23" stroke="#A588FF"/>
<path d="M1079.81 684.562V723.788" stroke="#A588FF"/>
<path d="M1118.4 640.192H1440" stroke="#A588FF"/>
<path d="M1108.8 632.154H1440" stroke="#A588FF"/>
<path d="M1099.2 624.116H1440" stroke="#A588FF"/>
<path d="M923.906 192.145L974.402 149.864" stroke="#A588FF"/>
<path d="M901.06 177.998L946.948 132.18" stroke="#A588FF"/>
<path d="M876.865 165.619L917.761 116.747" stroke="#A588FF"/>
<path d="M851.331 155.169L887.043 103.403" stroke="#A588FF"/>
<path d="M825.024 146.488L855.168 92.3103" stroke="#A588FF"/>
<path d="M720.001 132.019V72.2151L749.377 47.6183V2.44385" stroke="#A588FF"/>
<path d="M728.641 676.685C728.641 672.666 724.801 669.45 720.001 669.45C715.393 669.45 711.553 672.666 711.553 676.685C711.553 680.704 715.393 683.919 720.001 683.919C724.801 683.919 728.641 680.704 728.641 676.685Z" stroke="#A588FF"/>
<path d="M948.292 598.394L1039.11 674.435V733.917" stroke="#A588FF" stroke-linecap="square"/>
<path d="M720.001 73.0187C816.961 73.0187 905.665 102.278 974.401 150.667" stroke="#A588FF"/>
<path d="M957.313 669.45C891.265 711.088 809.089 735.685 720.001 735.685" stroke="#A588FF"/>
<path d="M1099.2 499.524C1091.72 520.263 1081.92 540.197 1070.21 558.846" stroke="#A588FF"/>
<path d="M394.753 404.352H0.000976562" stroke="#A588FF"/>
<path d="M399.554 445.99H142.466" stroke="#A588FF"/>
<path d="M332.93 445.99L230.786 531.516H141.314" stroke="#A588FF"/>
<path d="M439.106 541.966L259.394 692.44H122.69" stroke="#A588FF"/>
<path d="M114.051 692.44C114.051 688.421 117.891 685.206 122.691 685.206C127.491 685.206 131.331 688.421 131.331 692.44C131.331 696.459 127.491 699.675 122.691 699.675C117.891 699.675 114.051 696.459 114.051 692.44Z" stroke="#A588FF"/>
<path d="M302.592 445.99L243.456 495.505H203.904" stroke="#A588FF"/>
<path d="M133.823 692.44C133.823 688.421 137.663 685.206 142.463 685.206C147.263 685.206 151.103 688.421 151.103 692.44C151.103 696.459 147.263 699.675 142.463 699.675C137.663 699.675 133.823 696.459 133.823 692.44Z" stroke="#A588FF"/>
<path d="M153.603 692.44C153.603 688.421 157.635 685.206 162.243 685.206C167.043 685.206 170.883 688.421 170.883 692.44C170.883 696.459 167.043 699.675 162.243 699.675C157.635 699.675 153.603 696.459 153.603 692.44Z" stroke="#A588FF"/>
<path d="M394.754 400.172H1.92163" stroke="#A588FF"/>
<path d="M360.387 445.99L240.771 547.27H76.6108" stroke="#A588FF"/>
<path d="M59.3333 547.27C59.3333 543.251 63.1733 540.036 67.9733 540.036C72.7733 540.036 76.6133 543.251 76.6133 547.27C76.6133 551.129 72.7733 554.344 67.9733 554.344C63.1733 554.344 59.3333 551.129 59.3333 547.27Z" stroke="#A588FF"/>
<path d="M429.122 623.794C429.122 619.775 432.962 616.56 437.762 616.56C442.562 616.56 446.402 619.775 446.402 623.794C446.402 627.813 442.562 631.028 437.762 631.028C432.962 631.028 429.122 627.813 429.122 623.794Z" stroke="#A588FF"/>
<path d="M461.186 623.794H414.338" stroke="#A588FF"/>
<path d="M437.762 604.18V643.407" stroke="#A588FF"/>
<path d="M92.5437 445.99C92.5437 442.131 96.3837 438.755 101.184 438.755C105.984 438.755 109.824 442.131 109.824 445.99C109.824 450.009 105.984 453.224 101.184 453.224C96.3837 453.224 92.5437 450.009 92.5437 445.99Z" stroke="#A588FF"/>
<path d="M124.61 445.99H77.7625" stroke="#A588FF"/>
<path d="M101.185 426.537V465.603" stroke="#A588FF"/>
<path d="M321.793 640.192H0.000976562" stroke="#A588FF"/>
<path d="M331.393 632.154H0.000976562" stroke="#A588FF"/>
<path d="M340.993 624.116H0.000976562" stroke="#A588FF"/>
<path d="M399.554 362.714H142.466" stroke="#A588FF"/>
<path d="M332.93 362.714L230.786 277.188H141.314" stroke="#A588FF"/>
<path d="M439.106 266.738L259.394 116.264H122.69" stroke="#A588FF"/>
<path d="M114.051 116.264C114.051 120.283 117.891 123.498 122.691 123.498C127.491 123.498 131.331 120.283 131.331 116.264C131.331 112.245 127.491 109.03 122.691 109.03C117.891 109.03 114.051 112.245 114.051 116.264Z" stroke="#A588FF"/>
<path d="M302.592 362.714L243.456 313.199H203.904" stroke="#A588FF"/>
<path d="M133.823 116.264C133.823 120.283 137.663 123.498 142.463 123.498C147.263 123.498 151.103 120.283 151.103 116.264C151.103 112.245 147.263 109.03 142.463 109.03C137.663 109.03 133.823 112.245 133.823 116.264Z" stroke="#A588FF"/>
<path d="M153.603 116.264C153.603 120.283 157.635 123.498 162.243 123.498C167.043 123.498 170.883 120.283 170.883 116.264C170.883 112.245 167.043 109.03 162.243 109.03C157.635 109.03 153.603 112.245 153.603 116.264Z" stroke="#A588FF"/>
<path d="M360.387 362.714L240.771 261.434H76.6108" stroke="#A588FF"/>
<path d="M59.3333 261.434C59.3333 265.453 63.1733 268.668 67.9733 268.668C72.7733 268.668 76.6133 265.453 76.6133 261.434C76.6133 257.575 72.7733 254.36 67.9733 254.36C63.1733 254.36 59.3333 257.575 59.3333 261.434Z" stroke="#A588FF"/>
<path d="M321.793 168.512H0.000976562" stroke="#A588FF"/>
<path d="M331.393 176.55H0.000976562" stroke="#A588FF"/>
<path d="M340.993 184.588H0.000976562" stroke="#A588FF"/>
<path d="M516.291 616.56L465.795 658.84" stroke="#A588FF"/>
<path d="M539.14 630.706L493.251 676.524" stroke="#A588FF"/>
<path d="M563.331 643.085L522.435 691.957" stroke="#A588FF"/>
<path d="M588.867 653.535L553.155 705.301" stroke="#A588FF"/>
<path d="M615.169 662.216L585.025 716.393" stroke="#A588FF"/>
<path d="M491.907 210.311L401.091 134.27V74.7873L314.691 2.44385" stroke="#A588FF" stroke-linecap="square"/>
<path d="M720.003 735.685C623.235 735.685 534.531 706.426 465.795 658.036" stroke="#A588FF"/>
<path d="M482.883 139.253C548.931 97.6155 631.107 73.0187 720.003 73.0187" stroke="#A588FF"/>
<path d="M340.994 309.18C348.482 288.441 358.274 268.507 369.986 249.858" stroke="#A588FF"/>
</g>
</svg>
