<svg width="26" height="18" viewBox="0 0 26 18" fill="none" xmlns="http://www.w3.org/2000/svg">
<path fill-rule="evenodd" clip-rule="evenodd" d="M9.01857 10.0596C8.89857 11.1653 8.57857 12.0481 8.02143 12.831C7.27429 13.8753 6.02143 14.851 3.95 15.8881C3.81711 15.9466 3.69748 16.0314 3.59837 16.1374C3.49926 16.2435 3.42273 16.3686 3.37343 16.5051C3.32414 16.6417 3.3031 16.7868 3.3116 16.9317C3.3201 17.0766 3.35796 17.2183 3.42288 17.3481C3.48779 17.478 3.57842 17.5933 3.68925 17.687C3.80008 17.7808 3.92881 17.851 4.06761 17.8935C4.20642 17.936 4.35241 17.9498 4.49673 17.9342C4.64104 17.9185 4.78067 17.8737 4.90714 17.8024C7.12143 16.6967 8.72571 15.5296 9.76429 14.0739C10.8229 12.5939 11.2143 10.9267 11.2143 8.98814V2.55957C11.2143 1.89653 10.9509 1.26064 10.4821 0.791804C10.0132 0.322963 9.37733 0.0595703 8.71429 0.0595703H3C2.33696 0.0595703 1.70107 0.322963 1.23223 0.791804C0.763392 1.26064 0.5 1.89653 0.5 2.55957V7.55957C0.5 8.93957 1.62 10.0596 3 10.0596H9.01857ZM23.3043 10.0596C23.1843 11.1653 22.8643 12.0481 22.3071 12.831C21.56 13.8753 20.3071 14.851 18.2357 15.8881C18.1028 15.9466 17.9832 16.0314 17.8841 16.1374C17.785 16.2435 17.7084 16.3686 17.6591 16.5051C17.6099 16.6417 17.5888 16.7868 17.5973 16.9317C17.6058 17.0766 17.6437 17.2183 17.7086 17.3481C17.7735 17.478 17.8641 17.5933 17.975 17.687C18.0858 17.7808 18.2145 17.851 18.3533 17.8935C18.4921 17.936 18.6381 17.9498 18.7824 17.9342C18.9268 17.9185 19.0664 17.8737 19.1929 17.8024C21.4071 16.6967 23.0114 15.5296 24.05 14.0739C25.1086 12.5939 25.5 10.9267 25.5 8.98814V2.55957C25.5 1.89653 25.2366 1.26064 24.7678 0.791804C24.2989 0.322963 23.663 0.0595703 23 0.0595703H17.2857C16.6227 0.0595703 15.9868 0.322963 15.5179 0.791804C15.0491 1.26064 14.7857 1.89653 14.7857 2.55957V7.55957C14.7857 8.93957 15.9057 10.0596 17.2857 10.0596H23.3043Z" fill="#F4F4F5"/>
</svg>
