<svg width="25" height="18" viewBox="0 0 25 18" fill="none" xmlns="http://www.w3.org/2000/svg">
<path d="M24.7556 3.51231L21.4224 0.23976C21.266 0.0862443 21.0539 -4.27964e-09 20.8328 0C20.6117 4.27964e-09 20.3996 0.0862443 20.2432 0.23976C20.0869 0.393276 19.999 0.601488 19.999 0.818593C19.999 1.0357 20.0869 1.24391 20.2432 1.39743L22.1546 3.27301H20.8328C15.6944 3.27301 14.4736 6.14876 13.3976 8.68499C12.4206 10.987 11.6352 12.836 8.24361 13.0661C8.03078 12.0741 7.45038 11.1951 6.61492 10.5994C5.77947 10.0037 4.74849 9.73379 3.72186 9.84198C2.69522 9.95017 1.74608 10.4288 1.05843 11.185C0.370785 11.9412 -0.00637173 12.9212 8.14617e-05 13.9349C0.00653466 14.9486 0.396138 15.9238 1.09336 16.6716C1.79058 17.4193 2.74574 17.8862 3.77367 17.9818C4.8016 18.0774 5.82907 17.7948 6.65687 17.1889C7.48467 16.583 8.05384 15.6969 8.25402 14.7024C12.7601 14.4314 13.9143 11.7213 14.9351 9.31393C15.9798 6.85236 16.8048 4.90928 20.8328 4.90928H22.1546L20.2432 6.78486C20.0869 6.93838 19.999 7.14659 19.999 7.36369C19.999 7.5808 20.0869 7.78901 20.2432 7.94253C20.3996 8.09604 20.6117 8.18229 20.8328 8.18229C21.0539 8.18229 21.266 8.09604 21.4224 7.94253L24.7556 4.66998C24.8331 4.59399 24.8945 4.50376 24.9365 4.40444C24.9784 4.30512 25 4.19866 25 4.09114C25 3.98363 24.9784 3.87717 24.9365 3.77785C24.8945 3.67853 24.8331 3.58829 24.7556 3.51231ZM4.16665 16.3632C3.67221 16.3632 3.18887 16.2193 2.77776 15.9496C2.36665 15.6799 2.04623 15.2965 1.85702 14.8481C1.66781 14.3996 1.6183 13.9061 1.71476 13.43C1.81122 12.9539 2.04931 12.5165 2.39893 12.1733C2.74856 11.83 3.194 11.5962 3.67894 11.5015C4.16388 11.4068 4.66653 11.4554 5.12333 11.6412C5.58013 11.827 5.97056 12.1416 6.24526 12.5452C6.51995 12.9488 6.66657 13.4234 6.66657 13.9088C6.66657 14.5597 6.40319 15.184 5.93436 15.6443C5.46553 16.1046 4.82967 16.3632 4.16665 16.3632Z" fill="#F4F4F5"/>
</svg>
