<svg width="740" height="740" viewBox="0 0 740 740" fill="none" xmlns="http://www.w3.org/2000/svg">
<g filter="url(#filter0_ii_12_286)">
<g clip-path="url(#clip0_12_286)">
<path d="M0 370C0 165.655 165.655 0 370 0C574.345 0 740 165.655 740 370C740 574.345 574.345 740 370 740C165.655 740 0 574.345 0 370Z" fill="white" fill-opacity="0.01"/>
<g clip-path="url(#clip1_12_286)">
<path d="M-7 377C-7 172.655 158.655 7.00024 363 7.00024C567.345 7.00024 733 172.655 733 377C733 581.346 567.345 747 363 747C158.655 747 -7 581.346 -7 377Z" fill="black"/>
<g filter="url(#filter1_f_12_286)">
<ellipse cx="362.5" cy="636" rx="806.5" ry="161" fill="#2770FF" fill-opacity="0.3"/>
</g>
</g>
</g>
</g>
<defs>
<filter id="filter0_ii_12_286" x="0" y="-16" width="748" height="772" filterUnits="userSpaceOnUse" color-interpolation-filters="sRGB">
<feFlood flood-opacity="0" result="BackgroundImageFix"/>
<feBlend mode="normal" in="SourceGraphic" in2="BackgroundImageFix" result="shape"/>
<feColorMatrix in="SourceAlpha" type="matrix" values="0 0 0 0 0 0 0 0 0 0 0 0 0 0 0 0 0 0 127 0" result="hardAlpha"/>
<feOffset dx="8" dy="16"/>
<feGaussianBlur stdDeviation="15"/>
<feComposite in2="hardAlpha" operator="arithmetic" k2="-1" k3="1"/>
<feColorMatrix type="matrix" values="0 0 0 0 1 0 0 0 0 1 0 0 0 0 1 0 0 0 0.5 0"/>
<feBlend mode="normal" in2="shape" result="effect1_innerShadow_12_286"/>
<feColorMatrix in="SourceAlpha" type="matrix" values="0 0 0 0 0 0 0 0 0 0 0 0 0 0 0 0 0 0 127 0" result="hardAlpha"/>
<feOffset dy="-16"/>
<feGaussianBlur stdDeviation="20"/>
<feComposite in2="hardAlpha" operator="arithmetic" k2="-1" k3="1"/>
<feColorMatrix type="matrix" values="0 0 0 0 0.0392157 0 0 0 0 0.00392157 0 0 0 0 0.388235 0 0 0 0.4 0"/>
<feBlend mode="normal" in2="effect1_innerShadow_12_286" result="effect2_innerShadow_12_286"/>
</filter>
<filter id="filter1_f_12_286" x="-644" y="275" width="2013" height="722" filterUnits="userSpaceOnUse" color-interpolation-filters="sRGB">
<feFlood flood-opacity="0" result="BackgroundImageFix"/>
<feBlend mode="normal" in="SourceGraphic" in2="BackgroundImageFix" result="shape"/>
<feGaussianBlur stdDeviation="100" result="effect1_foregroundBlur_12_286"/>
</filter>
<clipPath id="clip0_12_286">
<path d="M0 370C0 165.655 165.655 0 370 0C574.345 0 740 165.655 740 370C740 574.345 574.345 740 370 740C165.655 740 0 574.345 0 370Z" fill="white"/>
</clipPath>
<clipPath id="clip1_12_286">
<path d="M-7 377C-7 172.655 158.655 7.00024 363 7.00024C567.345 7.00024 733 172.655 733 377C733 581.346 567.345 747 363 747C158.655 747 -7 581.346 -7 377Z" fill="white"/>
</clipPath>
</defs>
</svg>
