<svg width="29" height="30" viewBox="0 0 29 30" fill="none" xmlns="http://www.w3.org/2000/svg">
<path d="M19 15H10M28 15C28 16.7728 27.6508 18.5283 26.9724 20.1662C26.2939 21.8041 25.2995 23.2923 24.0459 24.5459C22.7923 25.7995 21.3041 26.7939 19.6662 27.4724C18.0283 28.1508 16.2728 28.5 14.5 28.5C12.7272 28.5 10.9717 28.1508 9.33377 27.4724C7.69588 26.7939 6.20765 25.7995 4.95406 24.5459C3.70047 23.2923 2.70606 21.8041 2.02763 20.1662C1.34919 18.5283 1 16.7728 1 15C1 11.4196 2.42232 7.9858 4.95406 5.45406C7.4858 2.92232 10.9196 1.5 14.5 1.5C18.0804 1.5 21.5142 2.92232 24.0459 5.45406C26.5777 7.9858 28 11.4196 28 15Z" stroke="#FCF5FE" stroke-width="1.5" stroke-linecap="round" stroke-linejoin="round"/>
</svg>
