<svg width="25" height="26" viewBox="0 0 25 26" fill="none" xmlns="http://www.w3.org/2000/svg">
<path d="M22.9167 0H2.08333C1.5308 0 1.00089 0.219142 0.610194 0.609216C0.219493 0.999291 0 1.52835 0 2.07999V9.35997C0 16.2136 3.32292 20.367 6.11068 22.6446C9.11328 25.0964 12.1003 25.9284 12.2305 25.9635C12.4095 26.0122 12.5983 26.0122 12.7773 25.9635C12.9076 25.9284 15.8906 25.0964 18.8971 22.6446C21.6771 20.367 25 16.2136 25 9.35997V2.07999C25 1.52835 24.7805 0.999291 24.3898 0.609216C23.9991 0.219142 23.4692 0 22.9167 0ZM22.9167 9.35997C22.9167 14.1791 21.138 18.0907 17.6302 20.9845C16.1032 22.24 14.3666 23.2169 12.5 23.8705C10.6578 23.2283 8.94264 22.2687 7.43229 21.0352C3.88281 18.1362 2.08333 14.209 2.08333 9.35997V2.07999H22.9167V9.35997ZM6.55469 13.2158C6.35923 13.0206 6.24942 12.7559 6.24942 12.48C6.24942 12.204 6.35923 11.9393 6.55469 11.7442C6.75015 11.549 7.01525 11.4394 7.29167 11.4394C7.56809 11.4394 7.83319 11.549 8.02865 11.7442L10.4167 14.1297L16.9714 7.58418C17.0681 7.48755 17.183 7.4109 17.3095 7.35861C17.4359 7.30632 17.5715 7.2794 17.7083 7.2794C17.8452 7.2794 17.9807 7.30632 18.1072 7.35861C18.2336 7.4109 18.3485 7.48755 18.4453 7.58418C18.5421 7.6808 18.6189 7.79552 18.6712 7.92177C18.7236 8.04801 18.7506 8.18333 18.7506 8.31998C18.7506 8.45663 18.7236 8.59194 18.6712 8.71819C18.6189 8.84444 18.5421 8.95915 18.4453 9.05578L11.1536 16.3358C11.0569 16.4324 10.942 16.5092 10.8156 16.5615C10.6891 16.6138 10.5536 16.6408 10.4167 16.6408C10.2798 16.6408 10.1442 16.6138 10.0178 16.5615C9.89131 16.5092 9.77643 16.4324 9.67969 16.3358L6.55469 13.2158Z" fill="#FCF5FE"/>
</svg>
