<svg width="22" height="22" viewBox="0 0 22 22" fill="none" xmlns="http://www.w3.org/2000/svg">
<g clip-path="url(#clip0_82_398)">
<path d="M20.1716 10.7144C20.2632 5.46852 16.0848 1.14164 10.8389 1.05008C5.59298 0.958508 1.2661 5.13692 1.17453 10.3828C1.08297 15.6287 5.26138 19.9556 10.5073 20.0472C15.7532 20.1387 20.0801 15.9603 20.1716 10.7144Z" fill="url(#paint0_linear_82_398)"/>
<path d="M20.1716 10.7144C20.2632 5.46852 16.0848 1.14164 10.8389 1.05008C5.59298 0.958508 1.2661 5.13692 1.17453 10.3828C1.08297 15.6287 5.26138 19.9556 10.5073 20.0472C15.7532 20.1387 20.0801 15.9603 20.1716 10.7144Z" stroke="url(#paint1_radial_82_398)"/>
<mask id="mask0_82_398" style="mask-type:luminance" maskUnits="userSpaceOnUse" x="2" y="2" width="17" height="17">
<path d="M18.6729 2.54834H2.67285V18.5483H18.6729V2.54834Z" fill="white"/>
</mask>
<g mask="url(#mask0_82_398)">
<path d="M8.00602 13.2153C8.00602 13.5835 8.3045 13.882 8.67269 13.882C9.04088 13.882 9.33936 13.5835 9.33936 13.2153C9.33936 11.6764 9.67989 10.7204 10.2621 10.1381C10.8444 9.55587 11.8004 9.21533 13.3394 9.21533C13.7075 9.21533 14.006 8.91686 14.006 8.54867C14.006 8.18048 13.7075 7.882 13.3394 7.882C11.8004 7.882 10.8444 7.54146 10.2621 6.95921C9.67989 6.37695 9.33934 5.42099 9.33934 3.882C9.33934 3.51381 9.04088 3.21533 8.67269 3.21533C8.3045 3.21533 8.00602 3.51381 8.00602 3.882C8.00602 5.42099 7.66548 6.37695 7.08323 6.95921C6.50098 7.54146 5.54501 7.882 4.00602 7.882C3.63783 7.882 3.33936 8.18048 3.33936 8.54867C3.33936 8.91686 3.63783 9.21533 4.00602 9.21533C5.54501 9.21533 6.50098 9.55587 7.08323 10.1381C7.66548 10.7204 8.00602 11.6764 8.00602 13.2153Z" fill="white"/>
<path d="M13.6726 17.2154C13.6726 17.5836 13.9711 17.8821 14.3393 17.8821C14.7074 17.8821 15.0059 17.5836 15.0059 17.2154C15.0059 16.2552 15.2191 15.7159 15.5294 15.4056C15.8397 15.0953 16.379 14.8821 17.3393 14.8821C17.7074 14.8821 18.0059 14.5836 18.0059 14.2154C18.0059 13.8473 17.7074 13.5488 17.3393 13.5488C16.379 13.5488 15.8397 13.3356 15.5294 13.0253C15.2191 12.715 15.0059 12.1757 15.0059 11.2154C15.0059 10.8473 14.7074 10.5488 14.3393 10.5488C13.9711 10.5488 13.6726 10.8473 13.6726 11.2154C13.6726 12.1757 13.4594 12.715 13.1491 13.0253C12.8388 13.3356 12.2995 13.5488 11.3393 13.5488C10.9711 13.5488 10.6726 13.8473 10.6726 14.2154C10.6726 14.5836 10.9711 14.8821 11.3393 14.8821C12.2995 14.8821 12.8388 15.0953 13.1491 15.4056C13.4594 15.7159 13.6726 16.2552 13.6726 17.2154Z" fill="white"/>
</g>
</g>
<defs>
<linearGradient id="paint0_linear_82_398" x1="10.8565" y1="0.541656" x2="10.5075" y2="20.5386" gradientUnits="userSpaceOnUse">
<stop stop-color="#A9A1FF"/>
<stop offset="1" stop-color="#4A3BE4"/>
</linearGradient>
<radialGradient id="paint1_radial_82_398" cx="0" cy="0" r="1" gradientUnits="userSpaceOnUse" gradientTransform="translate(10.0074 0.526833) rotate(88.5684) scale(20.018 21.9333)">
<stop stop-color="white" stop-opacity="0.48"/>
<stop offset="1" stop-color="white" stop-opacity="0.04"/>
</radialGradient>
<clipPath id="clip0_82_398">
<rect width="21" height="21" fill="white" transform="translate(0.5 0.375488)"/>
</clipPath>
</defs>
</svg>
