<svg width="26" height="25" viewBox="0 0 26 25" fill="none" xmlns="http://www.w3.org/2000/svg">
<path d="M18.3674 15.7233H17.2381L16.8379 15.3373C18.2872 13.6565 19.0837 11.5105 19.082 9.29103C19.082 7.45343 18.5371 5.65711 17.5162 4.12921C16.4953 2.60131 15.0443 1.41046 13.3465 0.707241C11.6488 0.00402566 9.78072 -0.179968 7.97844 0.178529C6.17616 0.537025 4.52065 1.42191 3.22128 2.72128C1.92191 4.02065 1.03702 5.67616 0.678529 7.47844C0.320032 9.28072 0.504026 11.1488 1.20724 12.8465C1.91046 14.5443 3.10131 15.9953 4.62921 17.0162C6.15711 18.0371 7.95343 18.582 9.79103 18.582C12.0923 18.582 14.2078 17.7387 15.8373 16.3379L16.2233 16.7381V17.8674L23.3702 25L25.5 22.8702L18.3674 15.7233ZM9.79103 15.7233C6.23185 15.7233 3.35878 12.8502 3.35878 9.29103C3.35878 5.73185 6.23185 2.85878 9.79103 2.85878C13.3502 2.85878 16.2233 5.73185 16.2233 9.29103C16.2233 12.8502 13.3502 15.7233 9.79103 15.7233Z" fill="#F4F4F5"/>
</svg>
