<svg width="15" height="15" viewBox="0 0 15 15" fill="none" xmlns="http://www.w3.org/2000/svg">
<path d="M8.65707 1.06041L9.93435 3.6361C10.1085 3.99465 10.573 4.33856 10.9649 4.40441L13.28 4.79223C14.7605 5.04102 15.1089 6.12399 14.042 7.19231L12.2422 9.00699C11.9374 9.3143 11.7705 9.907 11.8648 10.3315L12.3801 12.5778C12.7865 14.3559 11.8503 15.0438 10.29 14.1145L8.12004 12.8193C7.72817 12.5852 7.08227 12.5852 6.68307 12.8193L4.51316 14.1145C2.96009 15.0438 2.01664 14.3486 2.42305 12.5778L2.93832 10.3315C3.03266 9.907 2.86574 9.3143 2.56093 9.00699L0.761118 7.19231C-0.298453 6.12399 0.0426432 5.04102 1.52314 4.79223L3.83822 4.40441C4.22286 4.33856 4.68733 3.99465 4.86151 3.6361L6.13878 1.06041C6.83549 -0.337194 7.96762 -0.337194 8.65707 1.06041Z" fill="#4A3BE4"/>
</svg>
