<svg width="21" height="21" viewBox="0 0 21 21" fill="none" xmlns="http://www.w3.org/2000/svg">
<path d="M20.1716 10.7144C20.2632 5.46852 16.0848 1.14164 10.8389 1.05008C5.59298 0.958508 1.2661 5.13692 1.17453 10.3828C1.08297 15.6287 5.26138 19.9556 10.5073 20.0472C15.7532 20.1387 20.0801 15.9603 20.1716 10.7144Z" fill="url(#paint0_linear_301_40)"/>
<path d="M20.1716 10.7144C20.2632 5.46852 16.0848 1.14164 10.8389 1.05008C5.59298 0.958508 1.2661 5.13692 1.17453 10.3828C1.08297 15.6287 5.26138 19.9556 10.5073 20.0472C15.7532 20.1387 20.0801 15.9603 20.1716 10.7144Z" stroke="url(#paint1_radial_301_40)"/>
<path d="M11.0621 5.12974C10.914 5.21053 10.784 5.29165 10.673 5.36713C10.562 5.29165 10.432 5.21053 10.2839 5.12974C9.752 4.83961 8.97601 4.54834 8.00635 4.54834C6.99414 4.54834 5.983 4.95406 5.22832 5.75905C4.47045 6.56744 4.00635 7.73896 4.00635 9.21501C4.00635 11.4449 5.5882 13.2832 7.06093 14.4998C7.81525 15.123 8.58426 15.6193 9.20082 15.9619C9.50896 16.133 9.78551 16.2694 10.009 16.3652C10.1201 16.4128 10.2256 16.4537 10.32 16.4839C10.3919 16.5069 10.5291 16.5484 10.673 16.5484C10.8169 16.5484 10.9541 16.5069 11.026 16.4839C11.1204 16.4537 11.2259 16.4128 11.337 16.3652C11.5605 16.2694 11.8371 16.133 12.1452 15.9619C12.7618 15.6193 13.5308 15.123 14.2851 14.4998C15.7578 13.2832 17.3397 11.4449 17.3397 9.21501C17.3397 7.73896 16.8756 6.56744 16.1177 5.75905C15.363 4.95406 14.3519 4.54834 13.3397 4.54834C12.37 4.54834 11.594 4.83961 11.0621 5.12974Z" fill="white"/>
<defs>
<linearGradient id="paint0_linear_301_40" x1="10.8565" y1="0.541656" x2="10.5075" y2="20.5386" gradientUnits="userSpaceOnUse">
<stop stop-color="#10834B"/>
<stop offset="1" stop-color="#09F785"/>
</linearGradient>
<radialGradient id="paint1_radial_301_40" cx="0" cy="0" r="1" gradientUnits="userSpaceOnUse" gradientTransform="translate(10.0074 0.526833) rotate(88.5684) scale(20.018 21.9333)">
<stop stop-color="white" stop-opacity="0.48"/>
<stop offset="1" stop-color="white" stop-opacity="0.04"/>
</radialGradient>
</defs>
</svg>
