<svg width="22" height="22" viewBox="0 0 22 22" fill="none" xmlns="http://www.w3.org/2000/svg">
<g clip-path="url(#clip0_82_417)">
<path d="M20.1716 10.7144C20.2632 5.46852 16.0848 1.14164 10.8389 1.05008C5.59298 0.958508 1.2661 5.13692 1.17453 10.3828C1.08297 15.6287 5.26138 19.9556 10.5073 20.0472C15.7532 20.1387 20.0801 15.9603 20.1716 10.7144Z" fill="url(#paint0_linear_82_417)"/>
<path d="M20.1716 10.7144C20.2632 5.46852 16.0848 1.14164 10.8389 1.05008C5.59298 0.958508 1.2661 5.13692 1.17453 10.3828C1.08297 15.6287 5.26138 19.9556 10.5073 20.0472C15.7532 20.1387 20.0801 15.9603 20.1716 10.7144Z" stroke="url(#paint1_radial_82_417)"/>
<path fill-rule="evenodd" clip-rule="evenodd" d="M4.67285 6.54834C4.67285 5.44377 5.56828 4.54834 6.67285 4.54834H14.6729C15.7774 4.54834 16.6729 5.44377 16.6729 6.54834V14.5483C16.6729 15.6529 15.7774 16.5483 14.6729 16.5483H6.67285C5.56828 16.5483 4.67285 15.6529 4.67285 14.5483V6.54834ZM6.00618 6.54834C6.00618 6.18015 6.30466 5.88167 6.67285 5.88167H7.33952V7.21501C7.33952 7.5832 7.04104 7.88167 6.67285 7.88167C6.30466 7.88167 6.00618 7.5832 6.00618 7.21501V6.54834ZM9.33952 7.88167C8.97133 7.88167 8.67285 7.5832 8.67285 7.21501V5.88167H10.0062V7.21501C10.0062 7.5832 9.70771 7.88167 9.33952 7.88167ZM12.0062 7.88167C11.638 7.88167 11.3395 7.5832 11.3395 7.21501V5.88167H12.6729V7.21501C12.6729 7.5832 12.3744 7.88167 12.0062 7.88167ZM14.6729 7.88167C14.3047 7.88167 14.0062 7.5832 14.0062 7.21501V5.88167H14.6729C15.041 5.88167 15.3395 6.18015 15.3395 6.54834V7.21501C15.3395 7.5832 15.041 7.88167 14.6729 7.88167ZM9.33952 13.215C9.33952 12.8468 9.638 12.5484 10.0062 12.5484H11.3395C11.7077 12.5484 12.0062 12.8468 12.0062 13.215V15.215H13.3395V13.215C13.3395 12.1104 12.4441 11.215 11.3395 11.215H10.0062C8.90162 11.215 8.00619 12.1104 8.00619 13.215V15.215H9.33952V13.215Z" fill="white"/>
</g>
<defs>
<linearGradient id="paint0_linear_82_417" x1="10.8565" y1="0.541656" x2="10.5075" y2="20.5386" gradientUnits="userSpaceOnUse">
<stop stop-color="#5E8CD2"/>
<stop offset="1" stop-color="#203096"/>
</linearGradient>
<radialGradient id="paint1_radial_82_417" cx="0" cy="0" r="1" gradientUnits="userSpaceOnUse" gradientTransform="translate(10.0074 0.526833) rotate(88.5684) scale(20.018 21.9333)">
<stop stop-color="white" stop-opacity="0.48"/>
<stop offset="1" stop-color="white" stop-opacity="0.04"/>
</radialGradient>
<clipPath id="clip0_82_417">
<rect width="21" height="21" fill="white" transform="translate(0.5 0.375488)"/>
</clipPath>
</defs>
</svg>
